<svg width="199" height="68" fill="none" xmlns="http://www.w3.org/2000/svg"><g opacity=".2" fill="#000"><path d="M82.143 49.488c.349 0 .698-.105 1.013-.175v2.445a6.123 6.123 0 01-2.166.384c-1.397 0-2.514-.558-3.073-1.78-1.502 1.222-3.388 1.99-5.798 1.99-2.794 0-5.378-1.537-5.378-4.715 0-3.946 3.632-5.134 6.845-5.134 1.327 0 2.794.175 3.982.454v-.559c0-1.92-1.397-3.248-4.017-3.248-2.27 0-4.156.56-5.518 1.188v-3.143c1.222-.42 3.423-1.013 5.867-1.013 4.331 0 7.09 2.06 7.09 6.705v5.483c.035.839.524 1.118 1.153 1.118zm-11.875-2.095c0 1.501 1.328 2.27 2.864 2.27 1.642 0 3.213-.594 4.436-1.816v-2.585c-.943-.174-2.236-.384-3.318-.384-1.921 0-3.982.594-3.982 2.515zM93.04 36.147c1.71 0 3.387.384 4.714 1.187v3.143c-1.118-.803-2.69-1.292-4.26-1.292-2.725 0-5.449 1.432-5.449 5.064 0 3.493 2.654 5.064 5.413 5.064a9.247 9.247 0 004.47-1.187v3.178c-1.466.699-3.142 1.048-5.063 1.048-4.087 0-8.277-2.48-8.277-7.963-.035-5.763 4.365-8.242 8.451-8.242zM115.426 49.488c.349 0 .698-.105 1.013-.175v2.445a6.126 6.126 0 01-2.166.384c-1.397 0-2.514-.558-3.073-1.78-1.502 1.222-3.388 1.99-5.798 1.99-2.794 0-5.378-1.537-5.378-4.715 0-3.946 3.632-5.134 6.845-5.134a18.3 18.3 0 013.982.454v-.559c0-1.92-1.397-3.248-4.017-3.248-2.27 0-4.156.56-5.518 1.188v-3.143c1.223-.42 3.423-1.013 5.868-1.013 4.33 0 7.089 2.06 7.089 6.705v5.483c.035.839.559 1.118 1.153 1.118zm-11.84-2.095c0 1.501 1.327 2.27 2.864 2.27 1.642 0 3.213-.594 4.436-1.816v-2.585c-.943-.174-2.236-.384-3.318-.384-1.956 0-3.982.594-3.982 2.515zM134.425 29.511v22.387h-3.073v-2.445c-1.188 1.502-3.004 2.829-5.868 2.829-4.645 0-7.613-3.667-7.613-8.102 0-4.401 2.968-8.103 7.613-8.103 2.689 0 4.471 1.188 5.518 2.41V29.51h3.423zm-8.347 9.64c-2.759 0-4.75 2.06-4.75 5.098 0 3.004 2.026 5.064 4.75 5.064 2.41 0 4.156-1.536 4.889-3.213v-3.736c-.733-1.677-2.479-3.214-4.889-3.214zM145.496 36.147c6.112 0 8.207 4.924 7.229 9.36H141.2c.384 2.759 3.073 3.911 5.867 3.911 1.851 0 3.563-.454 4.855-1.082v2.933c-1.397.664-3.353 1.048-5.483 1.048-4.715 0-8.697-2.69-8.697-8.103 0-5.553 4.226-8.067 7.754-8.067zm.174 2.829c-2.305 0-4.365 1.362-4.505 3.946h8.487c.209-1.327-.629-3.946-3.982-3.946zM156.218 51.898V36.566h3.038v1.92c.838-.942 2.619-2.34 5.099-2.34 2.305 0 3.912.944 4.785 2.446 1.327-1.328 3.143-2.445 5.378-2.445 4.051 0 5.833 3.003 5.833 6.181v9.605h-3.423v-9.5c0-1.99-1.188-3.213-3.039-3.213-1.676 0-3.003 1.118-3.806 2.06.035.35.07.7.07 1.048v9.605h-3.423v-9.5c0-1.99-1.187-3.213-3.038-3.213-1.851 0-3.248 1.327-4.052 2.375v10.338h-3.422v-.035zM195.438 36.566H199l-7.194 17.427c-1.677 3.982-3.842 5.344-6.182 5.344-.663 0-1.327-.105-2.026-.245v-2.898c.524.174 1.048.21 1.572.21 1.676 0 2.899-1.188 3.807-3.563l.314-.769-7.299-15.471h3.632l5.169 11.56 4.645-11.595zM71.281 2.654v8.731a6.945 6.945 0 014.96-2.095c3.876 0 6.32 2.62 6.32 6.252v9.499H79.14v-9.046c0-2.48-1.537-3.667-3.562-3.667-1.956 0-3.423 1.328-4.296 2.55V25.04h-3.423V2.654h3.423zM91.921 4.226v5.448h5.553v3.004h-5.553v7.02c0 2.025.943 2.689 2.899 2.689 1.118 0 2.13-.21 3.108-.594v2.934c-1.152.419-2.62.663-4.12.663-2.97 0-5.274-1.467-5.274-5.064v-7.683h-2.76V9.639h2.76V5.064l3.387-.838zM101.875 25.04V9.71h3.038v1.92c.839-.942 2.62-2.34 5.099-2.34 2.305 0 3.912.944 4.785 2.446 1.327-1.327 3.143-2.445 5.378-2.445 4.052 0 5.833 3.003 5.833 6.182v9.604h-3.423V15.54c0-1.99-1.187-3.213-3.038-3.213-1.677 0-3.004 1.118-3.807 2.06.035.35.07.7.07 1.049v9.604h-3.423v-9.5c0-1.99-1.187-3.213-3.038-3.213-1.851 0-3.248 1.328-4.051 2.375v10.338h-3.423zM134.424 2.654h-3.422v22.387h3.422V2.654zM27.067.035L26.787 0 0 2.794v49.104l26.787 15.925 26.787-15.925V2.794L27.067.034zm23.015 49.872L26.787 63.772 3.492 49.907V29.791l23.19 13.795.035 2.514-15.89-9.464-.035 2.445 15.96 9.604.035 2.55-15.96-9.535-.035 2.445 15.96 9.604 16.135-9.64v-2.444h-.035v-7.928l7.195-4.296v20.466h.035zm-.035-23.085l-6.356 3.737-2.934 1.746-14.04-8.312-.035 2.445 11.98 7.09-.105.07-.245.14-1.711 1.012-9.884-5.867-.035 2.444 7.823 4.645-1.85 1.223-.035.035-5.903-3.493-.035 2.445 3.877 2.27-3.947 2.375L3.563 27.1l23.085-13.9 23.4 13.621zm.035-2.41l-23.4-13.795-23.19 13.76V5.972l23.295-2.445 23.295 2.445v18.44z"/></g></svg>